<?xml version="1.0" encoding="UTF-8"?>
<svg id="_Слой_2" data-name="Слой 2" xmlns="http://www.w3.org/2000/svg" viewBox="0 0 382.93 364.29">
  <defs>
    <style>
      .cls-1, .cls-2, .cls-3 {
        fill: #1d1d1b;
      }

      .cls-4 {
        stroke-width: .48px;
      }

      .cls-4, .cls-5, .cls-6, .cls-7, .cls-8 {
        fill: #fff;
      }

      .cls-4, .cls-2, .cls-6, .cls-9, .cls-7, .cls-8, .cls-3, .cls-10, .cls-11, .cls-12 {
        stroke-miterlimit: 10;
      }

      .cls-4, .cls-2, .cls-6, .cls-9, .cls-7, .cls-8, .cls-3, .cls-10, .cls-12 {
        stroke: #1d1d1b;
      }

      .cls-2, .cls-6, .cls-10 {
        stroke-width: .5px;
      }

      .cls-9, .cls-7, .cls-3 {
        stroke-width: 2px;
      }

      .cls-9, .cls-10, .cls-11, .cls-12 {
        fill: none;
      }

      .cls-8 {
        stroke-width: .53px;
      }

      .cls-11 {
        stroke: #fff;
        stroke-width: 7px;
      }
    </style>
  </defs>
  <g id="_Заливка_ьелая_2" data-name="Заливка ьелая 2">
    <path class="cls-5" d="M376.88,75.83c-.55-1.13-1.18-2.42-2.61-3.54-.6-.47-1.94-1.37-3.85-1.61-2.16-.28-3.8.45-4.69.85-.58.26-1.08.55-1.51.83,8.49-9.09,17.84-22.95,14.51-34.5-1.18-3.54-4.76-6.42-8.39-5.61-5.76,1.6-8.2,9.08-10.57,14.11-1.86,4.22-5.45,11.38-7.92,16.92,1.44-4.02,2.97-9.1,3.07-11.51.36-3.92.23-8.17.13-12.3-.11-4.05-.59-8.78-3.29-11.99-4.24-5.35-11.33-1.85-13.52,3.8-1.7,4.32-1.96,9.04-2.48,13.62-.66,6.73-1.18,13.9-1.27,20.76-1.48.3-3.58.76-5.91,2.17-.95.57-2.5,1.53-3.87,3.31-1.02,1.31-1.45,2.49-2.27,4.79-.33.9-1.32,3.77-2.23,8.61-.4,2.08-.57,3.45-.71,4.62-.23,6.18,3.08,10.19,5.99,12.89-.14.72-.36,1.85-.65,3.16-1.04-2.66-4.03-3.54-6.25-1.86-2.11,1.66-2.59,6.22.24,7.36,1.8.38,1.48.71,1.72,2.29.15.89.72,1.36,1.36,1.76-1.58,3.19-3.87,6.56-7.18,9.59-1.96,1.79-9.59,8.57-20.55,8.61-2.72.01-4.98-.4-6.58-.79-.43-2.77-.98-5.57-1.63-8.6-4.3-19.94-7.76-35.98-18.2-54.59-4.56-8.14-11.26-19.84-24.06-31.3-9.67-8.65-18.59-13.38-29.16-18.98-13.47-7.14-21.06-11.16-32.67-13.5-19.11-3.84-34.35-.14-38.54.98-3.81,1.01-7.11,2.2-10.29,3.58-4.72,2.05-9.16,4.54-14.56,7.57-8.36,4.69-17.25,9.76-26.41,19.18-6.69,6.86-10.63,13.07-14.09,18.58-6.15,9.81-9.38,17.7-13.89,28.76-4.1,10.04-6.5,17.48-9.39,26.42-4.28,13.24-6.45,20.04-7.83,29.15-.75,4.99-1.85,12.21-1.37,20.15.04.7.1,1.4.16,2.1h0c-1.83,2.11-3.62,4.45-5.31,7.03-1.24,1.9-10.02,15.36-12.29,24.8-.36-.41-.81-.73-1.39-.9-3.08-.77-7.32,1.18-7.62,4.27-.27,1.72.6,4.17,2.27,5.03l.14.08c.94.36,1.58.92,2.1,1.59-1.61,1.5-3.25,2.26-4.08,2.7-8.42,4.38-12.64,15.72-13.57,18.26-1.33,3.65-3.8,10.72-1.43,18.63.39,1.32,3.1,10.37,8.61,10.98,1.27.14,2.39-.21,3.19-.56.3,1.46.71,2.69,1.5,3.97,2.84,4.52,9.5,7.65,14.09,5.46.81-.39,2.03-1.19,3.11-2.94.79,1.47,1.85,2.77,3.41,3.72,4.9,2.99,10.72.24,11.22,0,2.94-1.45,4.5-3.69,5.09-4.57,2.01-2.98,2.33-6,2.54-7.95.21-1.93.12-3.54,0-4.65,3.98.23,6.61-2.94,7.04-3.46,3.3-3.97,2.14-9.51,1.57-13.15-.89-5.67-3.65-9.62-5.68-12.53-1.97-2.81-3.46-4.21-4.65-5.27,1.41-.11,2.76-.9,3.85-1.82,3.74-3.09.74-9.49-4-8.27-1.7.26-2.57,1.55-3.37,2.91-.15.25-.3.44-.46.58-.58-4.33,1.43-9.16,4.26-14.39,4.01,6.71,8.36,11.99,11.42,15.7,1.44,1.75,3.27,3.94,5.53,6.37,5.68,6.14,14.12,13.81,26.16,19.85,16.12,8.07,29.81,8.76,49.89,9.78,4.55.23,12.31.47,22.34-.14.01,0,3.11,2.63,4.47,3.85-.21.47-.45.98-.72,1.52-.09.19-.18.37-.28.56-.62,1.22-1.39,2.58-2.33,4.02-.12.19-.25.38-.38.58-.27.38-.54.78-.84,1.18-.25.35-.52.71-.81,1.07-.13.17-.26.33-.4.5-.12.16-.26.32-.39.48-2.53,3.02-5.82,6.03-10.09,8.36-4.98,2.72-9.44,3.52-15.65,4.63-6.76,1.2-11.29,1.95-16.24,0-4.83-1.91-3.57-3.83-8.61-5.87-4.62-1.87-9.45-1.57-18.78-1.24-.98.03-2.23.56-3.92,1.24-1.5.6-5.55,2.06-7.63,8.61-3.91,12.32-5.78,24.68-4.3,35.6.97,7.22,1.82,13.47,3.8,18.51-6.56.23-13.09.74-19.56,1.84-11.88,2.06-20.02,9.88-3.97,14.51,8.72,2.41,17.95,2.56,27.23,3.17,10.12.59,20.06,1.05,30.1.75,13.86-.51,28.42-1.4,42.74-1.51,10.08-.19,20.19.29,30.01,2.61,14.3,3.38,28.13,9.68,43.25,11.2,24.23,2.9,48.13,2.44,72.19-1.87,18.87-3.47,22.06-11.89,2.12-16.42-12-2.3-23.65-3.49-35.52-4.02.11-.09.22-.16.31-.23.15-.11.28-.2.39-.28.1-.07.18-.13.22-.16,1.18-.88,2.18-1.64,2.95-2.25,7.03-5.49,16.68-14.14,25.8-26.63,6.89-9.42,8.45-14.15,9-18.39.27-2.06.9-7.38-1.1-13.2-.5-1.45-1.16-2.94-2.03-4.41-6.85-11.55-20.98-12.75-23.87-12.91-12.02-.69-20.49,5.75-22.89,7.63-7.48,5.87-10.39,13.1-12.91,19.37-1.47,3.64-2.47,7.13-3.14,10.34-4.67-8.11-13.26-22.17-24.45-35.78-7.55-9.18-13.91-15.26-15.3-16.58,1.73-2.95,3.1-5.44,4.05-7.21,12.65-3.03,23.01-6.26,34.54-13.97,13.14-8.79,21.2-19,25.04-24.45,3.53-5.01,9.42-13.52,12.91-26.22,1.33-4.82,2.05-9.3,2.43-13.37,2.41.44,5.64.84,9.31.78,2.33-.02,4.84-.22,7.44-.71,9.07-1.7,15.22-5.78,18.83-8.22,6.24-4.23,10.22-8.75,12.47-11.35.21-.25,2.69-3.56,7.63-10.17,1.31-1.76,2.41-3.23,3.39-4.61.31.29.59.67.99.84,1.8.91,4.07.41,5.62-.77,1.27-1.36,2.33-3.69,2.16-5.6-.3-2.49-1.76-3.72-3.43-3.55.1-.21.97-2.12,1.06-2.32.29,0,.59-.02.9-.04,5.81-.43,9.65-3.75,11.42-5.28,3.34-2.88,5.06-6.05,6.46-8.61,1.32-2.42,2.06-4.43,2.74-6.26,2-5.44,2.17-6.63,2.5-9.19.02-.17.04-.35.06-.53.05-.45.06-.93.04-1.43-.01-.52-.13-2.67-1.3-5.09ZM211.23,290.66c7.69,10.89,11.16,16.65,14.28,24.06,2.06,4.87,5.1,14.38,6.48,22.03-12.46.38-24.97.68-36.86-.32-16-1.42-30.51-8.31-46.38-9.59.15-3.67-.82-7.03-1.11-8.01-.52-1.79-1.79-6.01-5.67-9.59-4.64-4.27-10.24-5.1-14.06-5.22-.01,0-.03,0-.04,0-.18-.07-.35-.13-.52-.19.35-3.93.88-5.35,1.29-6.36.08-.2.56-1.23.87-2.6.12-.52.12-.96.17-1.22,10.44,0,22.09.62,38.7-7.09,3.63-1.68,8.98-4.58,14.85-9.49,1.06-.86,2.06-1.7,2.97-2.52.3-.26.58-.52.86-.78.12-.1.23-.2.34-.31.24-.22.48-.44.72-.67.76-.71,1.45-1.39,2.07-2.03.02-.02.04-.04.05-.06.12-.12.24-.24.35-.36.23-.23.45-.46.65-.68.11-.11.2-.21.3-.32.23-.24.44-.47.63-.68.11-.12.22-.24.32-.35.2-.22.39-.43.56-.63.08-.1.16-.19.24-.28.24-.28.45-.52.62-.72,4.88,6.35,10.27,14.01,17.32,23.99Z"/>
  </g>
  <g id="_Белая_обводка_2" data-name="Белая обводка 2">
    <path class="cls-11" d="M319.42,89.53c.15-1.17.39-2.91.78-4.99.91-4.84,1.91-7.71,2.23-8.61.82-2.3,1.26-3.48,2.27-4.79,1.38-1.78,2.93-2.74,3.87-3.31,2.34-1.41,4.44-1.87,5.91-2.17,1.43-.3,3.38-.68,5.87-.39,1.84.21,3.1.69,5.38,1.57,1.31.5,2.97,1.14,4.99,2.35,2.02,1.21,3.54,2.52,4.23,3.11,1.46,1.25,1.52,1.52,2.71,2.37,1.14.82,1.48.85,3.33,2.05,1.27.83,1.92,1.26,2.54,1.86.63.61,1.49,1.46,2.05,2.84.64,1.57.54,2.96.49,3.52-.05.54-.28,3.17-2.35,5.09-1.56,1.45-3.34,1.71-5.67,2.05-.87.13-2.66.32-4.89,0-.14-.02-2.89-.42-5.38-1.67-5.65-2.83-8.18-9.08-8.61-10.17"/>
    <path class="cls-11" d="M350.04,107.72c.56-.98,1.3-2.56,1.57-4.6.16-1.22-.15-3.01-.78-6.55-.7-3.92-1.06-5.01-2.06-5.72-.53-.38-.71-.27-1.96-.99-1.55-.89-2.14-1.56-2.83-2-.97-.63-2.61-1.11-5.48-.39"/>
    <path class="cls-11" d="M360.57,76.16c.42-.67,1.06-1.57,2.02-2.48.54-.51,1.55-1.45,3.13-2.15.89-.39,2.53-1.12,4.7-.85,1.91.24,3.25,1.14,3.85,1.61,1.43,1.12,2.06,2.41,2.61,3.54,1.17,2.42,1.29,4.57,1.3,5.09.09,2.35-.55,4-1.57,6.65-.63,1.65-1.36,3.5-2.87,5.61-1.08,1.51-2.42,3.38-4.89,4.83-3.03,1.78-5.92,1.85-7.76,1.89-1.77.04-3.63.06-5.67-.98-.6-.31-1.87-.97-2.93-2.41-1.18-1.59-1.43-3.22-1.5-3.98"/>
    <path class="cls-11" d="M346.81,110.85c1.46.61,4.03,1.48,7.25,1.41.29,0,.59-.02.9-.04,5.81-.43,9.65-3.75,11.42-5.28,3.34-2.88,5.06-6.05,6.46-8.61,1.32-2.42,2.06-4.43,2.74-6.26,2.13-5.8,2.19-6.77,2.56-9.72"/>
    <path class="cls-11" d="M360.61,76.03c9.12-8.57,21.98-24.79,18.13-38.17-1.18-3.54-4.77-6.42-8.4-5.61-5.76,1.6-8.2,9.08-10.56,14.1-2.56,5.8-8.02,16.43-9.73,21.47,1.23-2.21,4.72-12.19,4.88-16.06.36-3.92.22-8.17.12-12.31-.11-4.05-.59-8.78-3.29-11.98-4.24-5.35-11.32-1.85-13.52,3.8-1.7,4.32-1.96,9.04-2.47,13.62-.67,6.73-1.19,13.89-1.27,20.75"/>
    <path class="cls-11" d="M319.49,89.16c-.23,6.18,3.08,10.19,5.99,12.89,2.17,2.02,4.72,3.18,5.48,3.52,1.6.72,3.04,1.13,4.11,1.37"/>
    <path class="cls-11" d="M197.92,82.35c0-13.63,6.76-24.85,14.97-24.85,5.71,0,10.94,5.42,13.45,13.93l-12.27,9.96,13.66,4.28c-1,12.27-7.38,21.53-14.84,21.53-2.96,0-5.74-1.46-8.06-3.96.22-2.8-.36-5.33-2.02-6.77-.79-.69-1.78-1.08-2.72-1.29-1.37-3.76-2.17-8.16-2.17-12.83ZM156.93,61.55c5.71,0,10.94,5.42,13.45,13.93l-12.27,9.96,13.66,4.27c-1,12.28-7.38,21.53-14.84,21.53-8.21,0-14.97-11.21-14.97-24.84s6.76-24.85,14.97-24.85ZM236.56,150.18c-3.16,6.86-8.41,10.38-13.78,13.8-.2.12-.4.25-.6.38-11.22,7.15-22.03,8.76-25.92,9.2-15.77,1.8-27.68-3.07-30.33-4.21-6.58-2.82-19.71-8.45-23.08-20.54-.55-1.97-2-7.48.68-13.21,3.28-7,10.31-9.14,11.15-9.39,5-1.43,9.3-.14,14.68,1.47,4.5,1.35,7.63,3.09,14.18,5.09,1.08.32,3.51,1.04,6.75,1.27,1.85.13,3.31.05,4.01,0,.13-.01.4-.03.8-.07,1.3-.14,3.86-.52,6.64-1.5,6.47-2.28,7.01-5.35,13.3-8.12.23-.1.46-.2.69-.3,2.74-1.19,5.89-2.41,9.68-1.85,7.89,1.17,11.57,8.27,12.13,9.39,3.94,7.93.19,16.07-.98,18.59ZM45.67,161.68h0c-.06-.71-.12-1.41-.16-2.11-.48-7.94.62-15.16,1.37-20.15,1.38-9.11,3.55-15.91,7.83-29.15,2.89-8.94,5.29-16.38,9.39-26.42,4.51-11.06,7.74-18.95,13.89-28.76,3.46-5.51,7.4-11.72,14.09-18.58,9.16-9.42,18.05-14.49,26.41-19.18,5.4-3.03,9.84-5.52,14.56-7.57,3.18-1.38,6.48-2.57,10.29-3.58,4.19-1.12,19.43-4.82,38.54-.98,11.61,2.34,19.2,6.36,32.67,13.5,10.57,5.6,19.49,10.33,29.16,18.98,12.8,11.46,19.5,23.16,24.06,31.3,10.44,18.61,13.9,34.65,18.2,54.59.65,3.03,1.2,5.83,1.63,8.6.55,3.45.92,6.85,1.11,10.57.2,3.95.43,9.11-.12,15.2-.38,4.07-1.1,8.55-2.43,13.37-3.49,12.7-9.38,21.21-12.91,26.22-3.84,5.45-11.9,15.66-25.04,24.45-11.53,7.71-21.89,10.94-34.54,13.97-2.6.62-5.3,1.24-8.12,1.88-.48.11-.96.22-1.44.32M171.15,242.78c-10.03.61-17.79.37-22.34.14-20.08-1.02-33.77-1.71-49.89-9.78-12.04-6.04-20.48-13.71-26.16-19.85-1.98-7.39-1.51-13.37-.97-16.81.88-5.56,2.78-9.63,4.31-12.91,1.23-2.66,3.29-7.02,7.17-11.74.72-.88,1.45-1.7,2.2-2.47h0c3.84-4.04,7.97-6.87,13.19-10.44,2.6-1.78,4.81-3.14,6.33-4.05-2.93.4-6.86,1.13-11.35,2.55-3.45,1.09-10.22,3.29-17.41,8.41-9.59,6.83-14.4,14.91-17.22,19.76-1.12,1.92-2.21,3.8-3.2,5.63"/>
    <path class="cls-11" d="M193.91,266.67c4.88,6.35,10.27,14.01,17.32,23.99,7.69,10.89,11.16,16.65,14.28,24.06,2.06,4.87,5.1,14.38,6.48,22.03"/>
    <path class="cls-11" d="M248.01,307.87c.04-3.13.31-7.4,1.36-12.35.67-3.21,1.67-6.7,3.14-10.34,2.52-6.27,5.43-13.5,12.91-19.37,2.4-1.88,10.87-8.32,22.89-7.63,2.89.16,17.02,1.36,23.87,12.91.87,1.47,1.53,2.96,2.03,4.41,2,5.82,1.37,11.14,1.1,13.2-.55,4.24-2.11,8.97-9,18.39-9.12,12.49-18.77,21.14-25.8,26.63-.77.61-1.77,1.37-2.95,2.25-.07.05-.15.1-.22.16-.11.08-.24.17-.39.28-.11.08-.21.16-.31.23"/>
    <path class="cls-11" d="M148.81,227.27c9.17,5.3,16.58,10.74,22.34,15.51.01,0,3.11,2.63,4.47,3.85"/>
    <path class="cls-11" d="M249.37,295.52c-4.67-8.11-13.26-22.17-24.45-35.78-7.55-9.18-13.91-15.26-15.3-16.58-2-1.9-3.88-3.59-5.51-5.01-1.96-1.7-3.6-3.04-4.75-3.97-5.22-4.2-12.34-9.41-21.39-14.61"/>
    <path class="cls-11" d="M240.9,350.38c.35-1.38.93-3.29,1.89-5.46,1.25-2.81,2.82-5.35,5.22-8.35,4.14-5.18,5.92-5.71,10.7-10.83,3.59-3.84,5.91-7.1,7.43-9.26,3.35-4.73,5.44-8.64,9.13-15.52,3.99-7.44,4.22-8.59,6.65-11.74,2.95-3.81,5.84-6.28,7.83-7.96,3.34-2.82,5.49-4.61,9-5.87,2.78-1,5.23-1.25,6.78-1.3,3.84-.14,6.89.74,8.68,1.41"/>
    <path class="cls-11" d="M175.62,246.63h0c.39.34.92.82,1.55,1.39,2.96,2.73,5.11,4.95,5.87,5.75,2.23,2.33,3.81,4.19,4.81,5.35,2.06,2.41,3.66,4.46,4.64,5.7.59.76,1.08,1.39,1.43,1.85"/>
    <path class="cls-11" d="M280.51,333.72c-.77.61-1.77,1.37-2.95,2.25-.04.03-.12.09-.22.16-.11.08-.24.17-.39.28-.09.07-.2.14-.31.23-.23.17-.5.36-.79.57-1.32.94-3.13,2.23-5.47,3.73-2.99,1.9-5.35,3.18-5.84,3.44-1.76.95-1.73.85-4.94,2.47-4.26,2.14-4.52,2.42-6.66,3.35-4.11,1.79-5.63,1.85-6.59,1.79-1.57-.09-3.02-.58-3.44-.73-.8-.28-1.46-.58-2.01-.88-.5-.26-.9-.5-1.19-.69-1.43-.9-2.49-1.86-3.21-2.61-1.58-1.65-2.42-3.17-2.59-3.5-.8-1.47-1.14-2.72-1.34-3.43-.36-1.34-.52-2.51-.58-3.4"/>
    <path class="cls-11" d="M148.75,326.84c.15-3.67-.82-7.03-1.11-8.01-.52-1.79-1.79-6.01-5.67-9.59-4.64-4.27-10.24-5.1-14.06-5.22-.01,0-.03-.01-.04-.01-.19-.01-.36-.01-.54-.01-.85-.01-1.59.01-2.19.02-2.34.06-7.57.5-13.11,3.66-2.85,1.63-4.91,3.48-6.26,4.89"/>
    <path class="cls-11" d="M88.05,326.38c-1.98-5.04-2.83-11.29-3.8-18.51-1.48-10.92.39-23.28,4.3-35.6,2.08-6.55,6.13-8.01,7.63-8.61,1.69-.68,2.94-1.21,3.92-1.24,9.33-.33,14.16-.63,18.78,1.24,5.04,2.04,3.78,3.96,8.61,5.87,4.95,1.95,9.48,1.2,16.24,0,6.21-1.11,10.67-1.91,15.65-4.63,4.27-2.33,7.56-5.34,10.09-8.36"/>
    <path class="cls-11" d="M127.33,304c.01-.06.01-.12.02-.18.35-3.93.88-5.35,1.29-6.36.08-.2.56-1.23.87-2.6.12-.52.12-.96.17-1.22"/>
    <path class="cls-11" d="M127.91,304.02s-.03-.01-.04-.01c-.18-.07-.35-.13-.52-.19-1.55-.55-2.86-1.06-3.87-1.46-3.33-1.31-4.14-1.78-4.53-2.02-1.62-.98-2.79-2.04-3.56-2.83-.26-.28-1.52-1.59-2.74-3.66-.47-.79-.81-1.49-1.04-2.02"/>
    <path class="cls-11" d="M183.23,277.06c-5.87,4.91-11.22,7.81-14.85,9.49-16.61,7.71-28.26,7.09-38.7,7.09-.71,0-2.56.42-5.66,0-1.48-.2-2.54-.97-3.18-1.37"/>
    <path class="cls-11" d="M183.23,277.06c1.79-1.44,3.68-3.09,5.61-4.98,1.92-1.86,3.6-3.68,5.07-5.41"/>
    <path class="cls-11" d="M169.47,256.54c1.04-1.26,2.15-2.73,3.23-4.44,1.23-1.96,2.18-3.82,2.92-5.47"/>
    <path class="cls-11" d="M148.75,326.84c.01.97-.1,2.5-.74,4.22-.27.71-1.05,2.59-2.63,4.11-1.37,1.32-2.86,1.89-7.28,2.89-4.63,1.05-6.95,1.57-10.83,1.96-2.4.24-2.06.1-9.03.4-8.86.38-9.88.63-12.47,0-2.83-.68-5.08-1.83-7.05-2.83-2.39-1.22-4.14-2.11-5.93-3.78-1.27-1.17-3.37-3.49-4.74-7.43"/>
    <path class="cls-11" d="M104.99,154.87c-1.52.91-3.73,2.27-6.33,4.05-5.22,3.57-9.35,6.4-13.19,10.43h0c-.75.78-1.48,1.6-2.2,2.48-3.88,4.72-5.94,9.08-7.17,11.74-1.53,3.28-3.43,7.35-4.31,12.91-.54,3.44-1.01,9.42.97,16.81-2.26-2.43-4.09-4.62-5.53-6.37-3.06-3.71-7.41-8.99-11.42-15.7.99-1.83,2.08-3.71,3.2-5.63,2.82-4.85,7.63-12.93,17.22-19.76,7.19-5.12,13.96-7.32,17.41-8.41,4.49-1.42,8.42-2.15,11.35-2.55Z"/>
    <path class="cls-11" d="M51.55,205.61c-.58-4.33,1.43-9.16,4.26-14.39"/>
    <path class="cls-11" d="M55.53,212.21c1.19,1.06,2.68,2.46,4.65,5.27,2.03,2.91,4.79,6.86,5.68,12.53.57,3.64,1.73,9.18-1.57,13.15-.43.52-3.06,3.69-7.04,3.46-2.49-.14-4.96-2.37-5.63-2.97"/>
    <path class="cls-11" d="M31.88,247.22c-.02,1.87.16,4.66,1.17,7.83.57,1.77,1.12,3.49,1.94,5.01h0c.79,1.48,1.85,2.78,3.41,3.73,4.9,2.99,10.72.24,11.22,0,2.94-1.45,4.5-3.69,5.09-4.57,2.01-2.98,2.33-6,2.54-7.95.21-1.93.12-3.54,0-4.65"/>
    <path class="cls-11" d="M15.84,241.61c-.35,2.19-.62,5.49,0,9.4.15.95.29,1.8.45,2.57.3,1.46.71,2.69,1.5,3.97,2.84,4.52,9.5,7.65,14.09,5.46.81-.39,2.03-1.19,3.11-2.94h0"/>
    <path class="cls-11" d="M97.23,134.53c-4.61.62-11.32,1.91-18.98,4.85-4.71,1.81-9.78,4.25-14.94,7.54-4,2.55-11.03,7.14-17.64,14.75h0c-1.83,2.11-3.62,4.45-5.31,7.03-1.24,1.9-10.02,15.36-12.29,24.8"/>
    <path class="cls-11" d="M16.29,253.58c-.8.35-1.92.7-3.19.56-5.51-.61-8.22-9.66-8.61-10.98-2.37-7.91.1-14.98,1.43-18.63.93-2.54,5.15-13.88,13.57-18.26.83-.44,2.47-1.2,4.08-2.7"/>
    <path class="cls-11" d="M55.73,236.56c-.28.45-1.21,1.5-1.66,2.3-.65,1.14-1.82,3.2-2.45,4.79-.54,1.36-1.14,4.62-.93,7.87"/>
    <path class="cls-11" d="M52.36,208.48c-.42-.93-.68-1.89-.81-2.87-.83.72-1.8.1-2.73-.43-1.5-.87-3.28-.73-4.78.09-.76.31-1.6,1.2-2.16.58-.07-.1-.04-.05-.31-.65-.6-1.46-2.44-2.65-4.1-2.42-.77.04-1.79.43-2.5.29-.5-.15-.64-.8-.82-1.29-.31-1.12-1.1-2.07-2.26-2.34-.5-.16-1.97-.36-2.35-.72-.72-.54-.5-1.9-.58-2.76-.04-.89-.32-1.8-.89-2.46-.15.62-.27,1.23-.36,1.81-.13.84-.5,3.66-2.48,6.39-.53.73-1.09,1.35-1.66,1.87.77.97,1.32,2.16,2.3,3.27.74.72,1.65,1.25,2.63,1.45,1.46.26,3.14-.11,4.26.95,1.02.93,2.05,1.85,3.35,2.38,1.7.9,3.76.69,5.62.56.11.01.24.02.37.04.05.01.02-.02.14.02.1.03.26.08.33.1,1.02.36,1.99,1.56,3.14,1.81,1.33.24,3.2.08,4.44-.86.64-.48,1.11-1.29,1.92-1.48.66-.12,1.42.18,2.1.31.45.12.9.15,1.35.09-1.37-1.18-2.34-1.89-3.16-3.73ZM31.23,204.67c-1.14,0-2.06-.84-2.06-1.88s.92-1.89,2.06-1.89,2.05.85,2.05,1.89-.92,1.88-2.05,1.88ZM39.3,208.09c-.95,0-1.71-.76-1.71-1.71s.76-1.71,1.71-1.71,1.71.76,1.71,1.71-.77,1.71-1.71,1.71ZM47.86,209.93c-1.14,0-2.06-.82-2.06-1.84s.92-1.83,2.06-1.83,2.05.82,2.05,1.83-.92,1.84-2.05,1.84Z"/>
    <path class="cls-11" d="M26.68,192.6c-3.08-.77-7.32,1.18-7.62,4.27-.27,1.72.6,4.17,2.27,5.03l.14.08c.94.36,1.58.92,2.1,1.59.57-.52,1.13-1.14,1.66-1.87,1.98-2.73,2.35-5.55,2.48-6.39.09-.58.21-1.19.36-1.81-.36-.41-.81-.73-1.39-.9ZM26.12,196.26c-.75,0-1.35-.61-1.35-1.35s.6-1.35,1.35-1.35,1.34.61,1.34,1.35-.6,1.35-1.34,1.35Z"/>
    <path class="cls-11" d="M55.38,202.12c-1.7.26-2.57,1.55-3.37,2.91-.15.25-.3.44-.46.58.13.98.39,1.94.81,2.87.82,1.84,1.79,2.55,3.16,3.73h.01c1.41-.11,2.76-.9,3.85-1.82,3.74-3.09.74-9.49-4-8.27ZM56.93,207.75c-1.12,0-2.03-.81-2.03-1.81s.91-1.81,2.03-1.81,2.03.81,2.03,1.81-.91,1.81-2.03,1.81Z"/>
    <path class="cls-11" d="M27.46,194.91c0,.74-.6,1.35-1.34,1.35s-1.35-.61-1.35-1.35.6-1.35,1.35-1.35,1.34.61,1.34,1.35Z"/>
    <path class="cls-11" d="M33.28,202.79c0,1.04-.92,1.88-2.05,1.88s-2.06-.84-2.06-1.88.92-1.89,2.06-1.89,2.05.85,2.05,1.89Z"/>
    <path class="cls-11" d="M41.01,206.38c0,.95-.77,1.71-1.71,1.71s-1.71-.76-1.71-1.71.76-1.71,1.71-1.71,1.71.76,1.71,1.71Z"/>
    <path class="cls-11" d="M49.91,208.09c0,1.02-.92,1.84-2.05,1.84s-2.06-.82-2.06-1.84.92-1.83,2.06-1.83,2.05.82,2.05,1.83Z"/>
    <path class="cls-11" d="M58.96,205.94c0,1-.91,1.81-2.03,1.81s-2.03-.81-2.03-1.81.91-1.81,2.03-1.81,2.03.81,2.03,1.81Z"/>
    <path class="cls-11" d="M325.49,102.05c-.07.72-.2,1.98-.51,3.59-.47,2.43-1.36,5.68-3.07,9.12-1.58,3.19-3.87,6.56-7.18,9.59-1.96,1.79-9.59,8.57-20.55,8.61"/>
    <path class="cls-11" d="M354.06,112.26c-.28.64-.63,1.43-1.06,2.32-.42.88-.91,1.87-1.49,2.93-1.24,2.29-2.42,4.12-3.85,6.15-.98,1.38-2.08,2.85-3.39,4.61-4.94,6.61-7.42,9.92-7.63,10.17-2.25,2.6-6.23,7.12-12.47,11.35-3.61,2.44-9.76,6.52-18.83,8.22-2.6.49-5.11.69-7.44.71"/>
    <path class="cls-11" d="M352.41,119.27c-.93,0-1.68.64-1.68,1.43s.75,1.44,1.68,1.44,1.68-.65,1.68-1.44-.76-1.43-1.68-1.43Z"/>
    <path class="cls-11" d="M356.43,118.13c-.3-2.49-1.76-3.72-3.43-3.55-.9.09-1.87.59-2.75,1.52-1.2,1.26-1.58,2.2-2.75,1.14-.96-.79-2.04-1.54-3.4-1.72-.89-.17-1.77-.02-2.38.27-.81.31-1.86,1.14-2.26-.09-.35-.86-.83-1.83-1.78-2.43-.84-.53-1.65-.73-2.55-.59-.72.05-2.53.86-3.2.52-.64-.75-.24-1.68-1.04-2.76-.82-1.42-2.33-2.19-3.94-2.19-.41-.01-1.04.05-1.36-.12l-.09-.06c-.45-.58-.24-1.66-.52-2.43,0-.03-.02-.06-.03-.09-.9-2.92-4.05-3.95-6.36-2.2-2.11,1.66-2.59,6.22.24,7.36,1.8.38,1.48.71,1.72,2.29.15.89.72,1.36,1.36,1.76.7.43,1.49.78,1.98,1.47,1.31,1.64,3.44.86,5.2,1.2.66.34.65,1.4,1.08,1.99,1.76,2.73,5.01,2.02,7.66,1.9.39.09.46.56.56.92.16.68.54,1.34,1.21,1.67,2.47,1.22,4.83.57,7.15-.65.38-.04.66.15.91.4.31.29.59.67.99.84,1.8.91,4.07.41,5.62-.77,1.27-1.36,2.33-3.69,2.16-5.6ZM320.96,104.6c0-.81.66-1.48,1.47-1.48s1.48.67,1.48,1.48-.66,1.48-1.48,1.48-1.47-.66-1.47-1.48ZM328.57,114.37c-1.04,0-1.87-.89-1.87-1.98s.83-1.99,1.87-1.99,1.88.89,1.88,1.99-.84,1.98-1.88,1.98ZM336.49,118.65c-1.1,0-2-.96-2-2.14s.9-2.14,2-2.14,2.01.96,2.01,2.14-.9,2.14-2.01,2.14ZM344.7,121.47c-1.06,0-1.93-.87-1.93-1.93s.87-1.94,1.93-1.94,1.94.87,1.94,1.94-.87,1.93-1.94,1.93ZM352.41,122.14c-.93,0-1.68-.65-1.68-1.44s.75-1.43,1.68-1.43,1.68.64,1.68,1.43-.76,1.44-1.68,1.44Z"/>
    <path class="cls-11" d="M323.91,104.6c0,.82-.66,1.48-1.48,1.48s-1.47-.66-1.47-1.48.66-1.48,1.47-1.48,1.48.67,1.48,1.48Z"/>
    <path class="cls-11" d="M330.45,112.39c0,1.09-.84,1.98-1.88,1.98s-1.87-.89-1.87-1.98.83-1.99,1.87-1.99,1.88.89,1.88,1.99Z"/>
    <path class="cls-11" d="M338.5,116.51c0,1.18-.9,2.14-2.01,2.14s-2-.96-2-2.14.9-2.14,2-2.14,2.01.96,2.01,2.14Z"/>
    <path class="cls-11" d="M346.64,119.54c0,1.06-.87,1.93-1.94,1.93s-1.93-.87-1.93-1.93.87-1.94,1.93-1.94,1.94.87,1.94,1.94Z"/>
    <path class="cls-11" d="M354.09,120.7c0,.79-.76,1.44-1.68,1.44s-1.68-.65-1.68-1.44.75-1.43,1.68-1.43,1.68.64,1.68,1.43Z"/>
    <path class="cls-11" d="M148.97,115.82c-8.17-5.42-13.85-17.48-13.85-31.48,0-19.07,10.53-34.53,23.53-34.53s23.52,15.46,23.52,34.53c0,16.37-7.76,30.07-18.17,33.64h-.01"/>
    <path class="cls-11" d="M138.05,122.06c.79-.71,1.9-1.67,3.33-2.7,1.22-.88,2.44-1.76,3.91-2.45,1.27-.59,2.52-.91,3.66-1.1,1.05-.17,2.02-.23,2.82-.28,5.04-.29,9.97,2.8,12.22,2.44"/>
    <path class="cls-11" d="M194.19,95.82c-1.49-4.49-2.33-9.55-2.33-14.9,0-18.59,10.12-33.65,22.6-33.65s22.59,15.06,22.59,33.65-10.11,33.65-22.59,33.65c-4.21,0-8.16-1.71-11.53-4.7"/>
    <path class="cls-11" d="M171.77,89.71c-1,12.28-7.38,21.53-14.84,21.53-8.21,0-14.97-11.21-14.97-24.84s6.76-24.85,14.97-24.85c5.71,0,10.94,5.42,13.45,13.93l-12.27,9.96,13.66,4.27Z"/>
    <path class="cls-11" d="M227.73,85.67c-1,12.27-7.38,21.53-14.84,21.53-2.96,0-5.74-1.46-8.06-3.96.22-2.8-.36-5.33-2.02-6.77-.79-.69-1.78-1.08-2.72-1.29-1.37-3.76-2.17-8.16-2.17-12.83,0-13.63,6.76-24.85,14.97-24.85,5.71,0,10.94,5.42,13.45,13.93l-12.27,9.96,13.66,4.28Z"/>
    <path class="cls-11" d="M169.36,127.68c-1.14,13.89-2.28,27.78-3.43,41.67-6.58-2.82-19.71-8.45-23.08-20.54-.55-1.97-2-7.48.68-13.21,3.28-7,10.31-9.14,11.15-9.39,5-1.43,9.3-.14,14.68,1.47Z"/>
    <path class="cls-11" d="M196.26,173.56c-15.77,1.8-27.68-3.07-30.33-4.21,1.15-13.89,2.29-27.78,3.43-41.67,4.5,1.35,7.63,3.09,14.18,5.09,1.08.32,3.51,1.04,6.75,1.27,1.85.13,3.31.05,4.01,0,.13-.01.4-.03.8-.07.39,13.19.77,26.39,1.16,39.59Z"/>
    <path class="cls-11" d="M222.78,163.98c-.2.12-.4.25-.6.38-11.22,7.15-22.03,8.76-25.92,9.2-.39-13.2-.77-26.4-1.16-39.59,1.3-.14,3.86-.52,6.64-1.5,6.47-2.28,7.01-5.35,13.3-8.12.23-.1.46-.2.69-.3,2.35,13.31,4.7,26.62,7.05,39.93Z"/>
    <path class="cls-11" d="M236.56,150.18c-3.16,6.86-8.41,10.38-13.78,13.8-2.35-13.31-4.7-26.62-7.05-39.93,2.74-1.19,5.89-2.41,9.68-1.85,7.89,1.17,11.57,8.27,12.13,9.39,3.94,7.93.19,16.07-.98,18.59Z"/>
    <path class="cls-11" d="M181.98,183.34c1.71.65,4.22,1.47,7.34,1.96,2.76.43,8.66,1.3,15.55-.98,2.18-.72,5.49-2.09,9-4.79"/>
    <path class="cls-11" d="M237.05,117.9c1.36.77,3.49,2.22,5.38,4.7,2.39,3.13,3.15,6.29,3.42,7.92"/>
    <path class="cls-11" d="M140.01,125.14c-1.23.89-3.09,2.47-4.6,4.99-2.34,3.92-2.42,7.75-2.35,9.39"/>
    <path class="cls-11" d="M188.43,102.34c.43-1.13,1.42-3.3,3.62-5.08.51-.41,1.21-.97,2.14-1.44.74-.37,1.62-.68,2.66-.81.13-.02,1.58-.19,3.17.15.02.01.05.01.07.02"/>
    <path class="cls-11" d="M204.83,103.24v.05c-.18,2.17-.86,4.49-1.9,6.58-.51,1.02-1.11,1.98-1.78,2.84-3.87,4.97-9.74,5.94-11.54,6.16"/>
    <path class="cls-11" d="M72.76,213.31v-.02"/>
    <line class="cls-11" x1="297.9" y1="158.73" x2="297.9" y2="158.72"/>
    <path class="cls-11" d="M310.04,357.08c-24.06,4.31-47.96,4.77-72.19,1.87-15.12-1.52-28.95-7.82-43.25-11.2-9.82-2.32-19.93-2.8-30.01-2.61-14.32.11-28.88,1-42.74,1.51-10.04.3-19.98-.16-30.1-.75-9.28-.61-18.51-.76-27.23-3.17-16.05-4.63-7.91-12.45,3.97-14.51,6.47-1.1,13-1.61,19.56-1.84,1.49,3.81,3.63,6.93,6.96,9.28,3.89,2.74,8.27,3.26,17.02,4.3,10.51,1.25,17.87-.18,23.68-1.37,7.85-1.6,9.52-3.13,10.37-4.11,1.9-2.21,2.58-5,2.67-7.64,15.87,1.28,30.38,8.17,46.38,9.59,11.89,1,24.4.7,36.86.32.15.77.27,1.51.37,2.23.03.21.08.57.19,1.08,1.01,4.41,4.39,8.25,8.35,10.32,1.75.92,3.62,1.49,5.45,1.61,2.33.16,4.07-.45,9.88-3.42,8.32-4.25,12.48-6.38,16.82-9.39.98-.68,2.19-1.52,3.58-2.54h.01c11.87.53,23.52,1.72,35.52,4.02,19.94,4.53,16.75,12.95-2.12,16.42Z"/>
    <path class="cls-11" d="M213.67,235.95c-.95,1.77-2.32,4.26-4.05,7.21-1.71-1.63-3.54-3.31-5.51-5.01.48-.1.96-.21,1.44-.32,2.82-.64,5.52-1.26,8.12-1.88Z"/>
    <path class="cls-11" d="M193.91,266.67c-1.36,1.61-5.01,5.81-10.68,10.39-1.2-3.48-2.6-6.31-3.83-8.45-2.35-4.11-4.7-6.83-5.28-7.5-1.73-1.97-3.37-3.49-4.65-4.57,3.1-3.7,5.03-7.42,6.15-9.91.68.6,1.34,1.2,1.96,1.77,5.87,5.42,10.75,10.99,16.33,18.27Z"/>
    <path class="cls-11" d="M297.9,158.72c-3.67.06-6.9-.34-9.31-.78.55-6.09.32-11.25.12-15.2-.19-3.72-.56-7.12-1.11-10.57,1.6.39,3.86.8,6.58.79.12,1.1.31,2.76.59,4.76.41,2.94.82,5.26,1.57,9.46.7,3.97.96,5.24,1.24,7.69.17,1.61.27,2.95.32,3.85Z"/>
    <path class="cls-11" d="M85.47,169.35h0c.49,1.93,1.4,5.38,4.06,13.33,2.01,6,3.02,9,3.39,9.75,1.35,2.66,4.96,9.58,12.73,13.51,2.2,1.11,3.9.55,6.06,2.16,1.71,1.27,2.64,2.91,4.43,6.15,2.6,4.69,2.41,5.81,4.17,7.41,1.89,1.7,3.64,1.81,6.3,2.61,2.95.88,6.96,2.6,11.44,6.26"/>
    <path class="cls-11" d="M78.25,139.38c.01-.83.05-2.93.06-6.42.02-3.09-.04-4.46,0-5.28.26-4.89,1.1-7.57,2.09-12.16,2.59-12.02,1.03-13.24,3.65-16.88,2.58-3.57,4.53-2.99,5.9-6.37,1.29-3.16-.08-4.47.1-11.35.11-4.09.18-6.74,1.57-9.78,1.25-2.74,2.93-4.4,5.61-7.05,4.54-4.48,5.54-3.73,7.76-6.59,2.8-3.61,3.44-7.7,4.11-11.93.84-5.35-.04-6.88,1.56-10.7,1.01-2.38,2.26-3.93,3.92-6,2.23-2.77,4.22-4.5,8.08-7.82,4.07-3.5,5.65-4.45,7.83-7.31,1.21-1.58,2.04-3.01,2.56-3.98"/>
  </g>
  <g id="_Рука_2" data-name="Рука 2">
    <path class="cls-1" d="M339.18,80.23c1.23.62,1.74,1.42,2.2,2.31,1.44,2.53,3.43,4.86,5.89,6.38,0,0-.22-.1-.22-.1.12.05.23.1.34.17-.45-.26.89.49.84.46,0,0,.93.41.93.41l-.39-.08c.17-.04.69.19.76.32-.08-.12-.56-.35-.74-.31,1.85.52,3.68,1.23,5.63,1.31,5.48.19,10.91-.95,10.46-7.65-.37-3.64-4.09-5.39-6.93-7.11-1.74-.97-3.03-2.52-4.58-3.75-3.51-2.94-7.81-4.82-12.23-5.95-6.72-.98-15.34,1.83-17.36,8.95-1.7,4.4-2.55,9.04-3.28,13.68,0,0-1.99-.24-1.99-.24.74-5.83,1.77-11.64,4.26-17.02,3.6-6.41,11.91-8.84,18.84-7.82,4.81,1.19,9.52,3.26,13.36,6.45,1.46,1.13,2.65,2.6,4.27,3.52,4.84,2.62,9.32,6.03,7.81,12.26-.65,3.26-3.49,5.99-6.78,6.42-3.98.89-8.14.56-11.9-1.02,0,0,.41.09.41.09-.17.05-.7-.2-.76-.32,0,0,.07.09.23.18.16.09.37.13.5.13l-.39-.08-1.07-.49c-1.97-.98-4.27-2.9-5.9-5.12-1.16-1.86-3.01-3.53-2.22-6h0Z"/>
    <path class="cls-1" d="M351.59,103.12c-.89-.96-.53-1.82-.85-2.9-.39-1.93-.82-3.93-1.28-5.84-.33-1.16-.51-2.13-1.29-2.68-.58-.31-1.38-.57-1.95-.94-1.76-.88-2.74-2.55-4.79-2.62-1.17-.17-1.81.51-2.94-.66.29-.93.82-1.19,1.36-1.25,1.71-.26,3.6-.11,5.07,1.02.87.67,1.52,1.19,2.36,1.67.97.6,2.12.83,2.83,1.82,1.62,2.74,1.47,6.21,2,9.28.05.51.1,1.02.13,1.55.04.49.05,1.17-.64,1.56h0Z"/>
    <path class="cls-9" d="M350.93,91.59h0c.07.77.38,3.33,1.56,4.92,1.06,1.44,2.33,2.1,2.93,2.41,2.04,1.04,3.91,1.02,5.68.98,1.84-.05,4.73-.11,7.76-1.89,2.47-1.46,3.81-3.32,4.89-4.83,1.51-2.11,2.24-3.96,2.87-5.61.72-1.86,1.24-3.23,1.46-4.69.03-.18.05-.35.06-.53.05-.45.06-.93.04-1.43-.01-.52-.13-2.67-1.3-5.09-.55-1.13-1.18-2.42-2.61-3.54-.6-.47-1.94-1.37-3.85-1.61-2.16-.28-3.8.45-4.69.85-.58.26-1.08.55-1.51.83-.75.5-1.28,1-1.62,1.32-.96.9-1.86,1.93-2.28,2.6"/>
    <path class="cls-1" d="M379.13,82.46c-.56,6.17-2.98,12.31-5.89,17.72-4.37,8.39-14,15.26-23.76,12.57-1.05-.25-2.05-.75-2.68-1.9,1.25-.38,2.19-.23,3.13,0,6.79,1.63,13.49-1.95,17.84-7.05,3.81-4.55,6.1-10.26,8.04-15.82.67-1.9,1.06-3.72,1.33-5.74l1.99.22h0Z"/>
    <path class="cls-9" d="M334.49,65.66c.09-6.86.61-14.03,1.27-20.76.52-4.58.78-9.3,2.48-13.62,2.19-5.65,9.28-9.15,13.52-3.8,2.7,3.21,3.18,7.94,3.29,11.99.1,4.13.23,8.38-.13,12.3-.1,2.41-1.63,7.49-3.07,11.51,0,.02,0,.03,0,.04-.86,2.41-1.69,4.44-2.15,5.27.46-1.37,1.22-3.21,2.15-5.27,0-.01,0-.02,0-.04,2.47-5.54,6.06-12.7,7.92-16.92,2.37-5.03,4.81-12.51,10.57-14.11,3.63-.81,7.21,2.07,8.39,5.61,3.33,11.55-6.02,25.41-14.51,34.5-1.34,1.43-2.66,2.75-3.9,3.92"/>
    <path class="cls-1" d="M335.07,106.97c-2.36.88-4.43-.42-6.48-1.36-5.95-3.09-10.81-9.53-10.1-16.49,0,0,2,.07,2,.07.01,6.09,4.11,11.42,9.16,14.5,1.8,1.23,3.93,1.46,5.41,3.27h0Z"/>
  </g>
  <g id="_Тело2" data-name="Тело2">
    <path class="cls-9" d="M214.07,81.39l12.27-9.96c-2.51-8.51-7.74-13.93-13.45-13.93-8.21,0-14.97,11.22-14.97,24.85,0,4.67.8,9.07,2.17,12.83.94.21,1.93.6,2.72,1.29,1.66,1.44,2.24,3.97,2.02,6.77,2.32,2.5,5.1,3.96,8.06,3.96,7.46,0,13.84-9.26,14.84-21.53l-13.66-4.28ZM158.11,85.44l12.27-9.96c-2.51-8.51-7.74-13.93-13.45-13.93-8.21,0-14.97,11.22-14.97,24.85s6.76,24.84,14.97,24.84c7.46,0,13.84-9.25,14.84-21.53l-13.66-4.27ZM237.54,131.59c-.56-1.12-4.24-8.22-12.13-9.39-3.79-.56-6.94.66-9.68,1.85-.23.1-.46.2-.69.3-6.29,2.77-6.83,5.84-13.3,8.12-2.78.98-5.34,1.36-6.64,1.5-.4.04-.67.06-.8.07-.7.05-2.16.13-4.01,0-3.24-.23-5.67-.95-6.75-1.27-6.55-2-9.68-3.74-14.18-5.09-5.38-1.61-9.68-2.9-14.68-1.47-.84.25-7.87,2.39-11.15,9.39-2.68,5.73-1.23,11.24-.68,13.21,3.37,12.09,16.5,17.72,23.08,20.54,2.65,1.14,14.56,6.01,30.33,4.21,3.89-.44,14.7-2.05,25.92-9.2.2-.13.4-.26.6-.38,5.37-3.42,10.62-6.94,13.78-13.8,1.17-2.52,4.92-10.66.98-18.59ZM45.67,161.68h0c-.06-.71-.12-1.41-.16-2.11-.48-7.94.62-15.16,1.37-20.15,1.38-9.11,3.55-15.91,7.83-29.15,2.89-8.94,5.29-16.38,9.39-26.42,4.51-11.06,7.74-18.95,13.89-28.76,3.46-5.51,7.4-11.72,14.09-18.58,9.16-9.42,18.05-14.49,26.41-19.18,5.4-3.03,9.84-5.52,14.56-7.57,3.18-1.38,6.48-2.57,10.29-3.58,4.19-1.12,19.43-4.82,38.54-.98,11.61,2.34,19.2,6.36,32.67,13.5,10.57,5.6,19.49,10.33,29.16,18.98,12.8,11.46,19.5,23.16,24.06,31.3,10.44,18.61,13.9,34.65,18.2,54.59.65,3.03,1.2,5.83,1.63,8.6.55,3.45.92,6.85,1.11,10.57.2,3.95.43,9.11-.12,15.2-.38,4.07-1.1,8.55-2.43,13.37-3.49,12.7-9.38,21.21-12.91,26.22-3.84,5.45-11.9,15.66-25.04,24.45-11.53,7.71-21.89,10.94-34.54,13.97-2.6.62-5.3,1.24-8.12,1.88-.48.11-.96.22-1.44.32M171.15,242.78c-10.03.61-17.79.37-22.34.14-20.08-1.02-33.77-1.71-49.89-9.78-12.04-6.04-20.48-13.71-26.16-19.85-1.98-7.39-1.51-13.37-.97-16.81.88-5.56,2.78-9.63,4.31-12.91,1.23-2.66,3.29-7.02,7.17-11.74.72-.88,1.45-1.7,2.2-2.47h0c3.84-4.04,7.97-6.87,13.19-10.44,2.6-1.78,4.81-3.14,6.33-4.05-2.93.4-6.86,1.13-11.35,2.55-3.45,1.09-10.22,3.29-17.41,8.41-9.59,6.83-14.4,14.91-17.22,19.76-1.12,1.92-2.21,3.8-3.2,5.63"/>
  </g>
  <g id="_Правая_нога_2" data-name="Правая нога 2">
    <path class="cls-9" d="M193.91,266.67c4.88,6.35,10.27,14.01,17.32,23.99,7.69,10.89,11.16,16.65,14.28,24.06,2.06,4.87,5.1,14.38,6.48,22.03"/>
    <path class="cls-1" d="M276,335.87c12.13-8.9,22.64-19.66,31.14-32.01,2.11-3.06,4.08-6.22,5.46-9.57,3.97-9.98,1.56-22.69-7.41-29.14-12.17-8.69-29.24-7.4-40.35,2.55-5.72,4.81-8.98,11.58-11.64,18.48-1.36,3.44-2.4,7.01-3.1,10.66-.79,3.65-.76,7.32-2,11.04h-.19c-1.14-3.81-.37-7.66.27-11.41.7-3.75,1.75-7.46,3.13-11.02,2.67-7.11,6.16-14.34,12.1-19.38,11.74-10.67,30.2-12.23,43.21-2.84,9.84,7.06,12.59,21.05,8.2,31.97-1.5,3.63-3.55,6.89-5.71,10.02-8.69,12.45-19.62,23.41-31.83,32.21l-1.27-1.55h0Z"/>
    <path class="cls-1" d="M174.95,247.38c-1.39-1.05-2.57-2.19-3.8-3.43l-.74-.27c-3.52-2.82-7.08-5.57-10.74-8.2-3.62-2.7-7.49-4.98-10.86-8.2,6.63,2.14,12.14,6.37,17.72,10.34,1.83,1.37,3.62,2.8,5.36,4.28l-.74-.27c1.74,1.33,3.55,2.75,5.14,4.26l-1.34,1.49h0Z"/>
    <path class="cls-1" d="M177.97,219.57c4.47.97,7.94,3.88,11.7,6.24,3.66,2.48,7.24,5.09,10.68,7.86,20.79,16.57,36.88,38.34,49.88,61.35,0,0-1.73,1-1.73,1-4.47-7.54-9.17-14.94-14.26-22.06-8.79-12.48-18.81-24.25-30.2-34.43-4.9-4.35-10.04-8.44-15.44-12.17-3.56-2.65-7.57-4.43-10.63-7.79h0Z"/>
    <path class="cls-9" d="M240.9,350.38c.35-1.38.93-3.29,1.89-5.46,1.25-2.81,2.82-5.35,5.22-8.35,4.14-5.18,5.92-5.71,10.7-10.83,3.59-3.84,5.91-7.1,7.43-9.26,3.35-4.73,5.44-8.64,9.13-15.52,3.99-7.44,4.22-8.59,6.65-11.74,2.95-3.81,5.84-6.28,7.83-7.96,3.34-2.82,5.49-4.61,9-5.87,2.78-1,5.23-1.25,6.78-1.3,3.84-.14,6.89.74,8.68,1.41"/>
    <path class="cls-9" d="M175.62,246.63h0c.39.34.92.82,1.55,1.39,2.96,2.73,5.11,4.95,5.87,5.75,2.23,2.33,3.81,4.19,4.81,5.35,2.06,2.41,3.66,4.46,4.64,5.7.59.76,1.08,1.39,1.43,1.85"/>
    <path class="cls-9" d="M231.99,336.75c.06.87.21,2.01.56,3.31.04.15.07.31.12.46.06.19.12.4.2.64.09.27.19.56.32.88.06.15.13.32.2.48.07.18.15.35.24.52s.18.35.28.53c.18.36.39.7.62,1.04.05.07.1.15.15.23.24.36.49.7.77,1.04.15.2.32.39.49.59.18.2.36.41.56.61.14.15.29.3.44.44.12.11.24.23.38.35.45.41.91.79,1.39,1.14.13.1.27.2.42.3.36.25.73.48,1.1.7.19.11.42.24.67.37.22.12.44.22.66.33.21.1.43.2.67.29.21.09.44.18.68.26.07.03.13.05.2.07.13.05.29.1.47.15h.02c.12.04.24.08.38.11.56.15,1.12.26,1.68.33.22.03.46.06.69.07.14.01.28.02.42.01.98,0,2.58-.25,6.09-1.76.05-.02.1-.05.16-.08,1.41-.61,2-.95,3.58-1.77.14-.08.27-.15.4-.21.1-.06.21-.11.32-.17.29-.15.58-.29.86-.44.2-.1.42-.21.65-.33.26-.13.52-.27.77-.39,3.21-1.62,3.18-1.52,4.94-2.47.49-.26,2.85-1.54,5.84-3.44.82-.51,1.61-1.03,2.41-1.59.37-.25.71-.49,1.04-.71.68-.48,1.45-1.02,2.29-1.63.19-.13.36-.25.51-.37h.01c.11-.09.22-.16.31-.23.15-.11.28-.2.39-.28.1-.07.18-.13.22-.16,1.18-.88,2.18-1.64,2.95-2.25"/>
  </g>
  <g id="_Левая_нога" data-name="Левая нога">
    <path class="cls-1" d="M105.77,312.57c.82-2.05,2.37-3.59,4.1-4.78,5.18-3.75,11.69-5.41,18.05-4.78,9.48.06,17.91,5.65,20.51,14.98.88,2.83,1.43,5.84,1.32,8.89l-2-.08c.08-5.41-1.55-11.3-5.13-15.46-6.4-7.46-17.67-7.43-26.32-4.35-3.91,1.27-6.75,3.8-10.53,5.58h0Z"/>
    <path class="cls-9" d="M88.05,326.38c-1.98-5.04-2.83-11.29-3.8-18.51-1.48-10.92.39-23.28,4.3-35.6,2.08-6.55,6.13-8.01,7.63-8.61,1.69-.68,2.94-1.21,3.92-1.24,9.33-.33,14.16-.63,18.78,1.24,5.04,2.04,3.78,3.96,8.61,5.87,4.95,1.95,9.48,1.2,16.24,0,6.21-1.11,10.67-1.91,15.65-4.63,4.27-2.33,7.56-5.34,10.09-8.36"/>
    <path class="cls-9" d="M129.68,293.64c-.05.26-.05.7-.17,1.22-.31,1.37-.79,2.4-.87,2.6-.41,1.01-.94,2.43-1.29,6.36,0,.06,0,.12-.02.18"/>
    <path class="cls-1" d="M111.64,291.82c2.2,1.58,3.19,3.95,5.27,5.58,3.2,2.86,7.51,3.84,11.32,5.68,0,0-.36-.07-.36-.07h.04v2.01c-5.26-1.47-11.1-3.33-14.38-8.05-1.1-1.45-2.18-3.29-1.89-5.15h0Z"/>
    <path class="cls-1" d="M120.84,292.27c2.79.78,5.58.64,8.43.35.4-.04,1.25-.03,1.65-.04,7.53-.01,15.16-.27,22.46-2.08,5.3-1.25,10.46-3.14,15.4-5.49,4.93-2.31,9.53-5.31,13.82-8.71l1.28,1.53c-4.23,3.71-8.96,6.87-14.03,9.39-5.07,2.44-10.39,4.4-15.89,5.72-7.57,1.82-15.33,1.96-23.04,1.77-.25,0-1.23-.03-1.47,0-2.97.29-6.77.4-8.6-2.43h0Z"/>
    <path class="cls-9" d="M193.91,266.67c-.17.2-.38.44-.62.72-.08.09-.16.18-.24.28-.19.21-.38.42-.56.63-.1.11-.21.23-.32.35-.19.21-.4.44-.63.68-.1.11-.19.21-.3.32-.21.22-.43.45-.65.68-.11.12-.23.24-.35.36-.01.02-.03.04-.05.06-.44.44-.89.88-1.35,1.33-.24.24-.48.47-.72.7s-.48.45-.72.67c-.11.11-.22.21-.34.31-.28.26-.56.52-.86.78-.91.82-1.91,1.66-2.97,2.52"/>
    <path class="cls-9" d="M175.62,246.63c-.21.47-.45.98-.72,1.52-.09.18-.18.37-.28.56-.62,1.22-1.39,2.58-2.33,4.02-.13.2-.25.39-.38.58-.27.38-.54.78-.84,1.18-.27.37-.54.72-.81,1.07-.13.17-.26.33-.4.5-.12.16-.26.32-.39.48"/>
    <path class="cls-9" d="M148.75,326.84c.01.97-.1,2.5-.74,4.22-.27.71-1.05,2.59-2.63,4.11-1.37,1.32-2.86,1.89-7.28,2.89-4.63,1.05-6.95,1.57-10.83,1.96-2.4.24-2.06.1-9.03.4-8.86.38-9.88.63-12.47,0-2.83-.68-5.08-1.83-7.05-2.83-2.39-1.22-4.14-2.11-5.93-3.78-1.27-1.17-3.37-3.49-4.74-7.43"/>
  </g>
  <g id="_Левая_рука" data-name="Левая рука">
    <path class="cls-3" d="M104.99,154.87c-1.52.91-3.73,2.27-6.33,4.05-5.22,3.57-9.35,6.4-13.19,10.43h0c-.75.78-1.48,1.6-2.2,2.48-3.88,4.72-5.94,9.08-7.17,11.74-1.53,3.28-3.43,7.35-4.31,12.91-.54,3.44-1.01,9.42.97,16.81-2.26-2.43-4.09-4.62-5.53-6.37-3.06-3.71-7.41-8.99-11.42-15.7.99-1.83,2.08-3.71,3.2-5.63,2.82-4.85,7.63-12.93,17.22-19.76,7.19-5.12,13.96-7.32,17.41-8.41,4.49-1.42,8.42-2.15,11.35-2.55Z"/>
    <path class="cls-9" d="M51.55,205.61c-.58-4.33,1.43-9.16,4.26-14.39"/>
    <path class="cls-9" d="M51.62,243.65c.67.6,3.14,2.83,5.63,2.97,3.98.23,6.61-2.94,7.04-3.46,3.3-3.97,2.14-9.51,1.57-13.15-.89-5.67-3.65-9.62-5.68-12.53-1.97-2.81-3.46-4.21-4.65-5.27"/>
    <path class="cls-1" d="M58.24,246.51c.86,6.37-.83,13.79-6.52,17.52-5.59,3.8-14.62,3.26-17.73-3.42,0,0-.14-.27-.14-.27v-.27s0,0,0,0l.14.54c-1.84-4.14-3.61-8.87-2.11-13.38,1.31,4.07,2.09,8.52,4.11,12.3,0,0,.13.23.13.23v.3s0,0,0,0l-.14-.54c2.68,5.31,9.85,5.37,14.33,2.39,2.29-1.52,4.04-3.93,4.95-6.57.87-2.68,1.18-5.76.99-8.63,0,0,1.99-.21,1.99-.21h0Z"/>
    <path class="cls-1" d="M35.99,260.06h0v.27l-.15.27c-3.69,6.92-13.33,4.5-17.62-.5-2.38-2.38-3.11-5.95-3.46-9.11-.43-3.14-.38-6.46,1.08-9.37.49,3.18.53,6.09,1.03,9.05.52,2.89,1.01,5.68,3.15,7.79,3.49,3.79,10.79,6.34,14.13,1.1,0,0-.15.56-.15.52,0,0,2,0,2,0h0Z"/>
    <path class="cls-1" d="M27.1,193.27c2.35-9.04,7.15-17.11,12.06-24.94,1.68-2.6,3.55-5.1,5.59-7.44l-.3.8s0-.45,0-.46c0,0,.3-.34.3-.34,9.97-11.32,23.38-19.44,37.68-24.03,4.77-1.49,9.71-2.74,14.79-2.31-4.7,1.73-9.47,2.67-14.18,4.23-4.65,1.53-9.17,3.46-13.47,5.79-4.29,2.33-8.42,5.04-12.31,7.99-3.87,2.97-7.5,6.25-10.69,9.94l.3-.8s0,.45,0,.46c0,0-.3.34-.3.34-3.98,4.52-7.1,9.72-10.14,14.9-2.95,5.19-5.81,10.61-7.4,16.35,0,0-1.94-.47-1.94-.47h0Z"/>
    <path class="cls-9" d="M16.29,253.58c-.8.35-1.92.7-3.19.56-5.51-.61-8.22-9.66-8.61-10.98-2.37-7.91.1-14.98,1.43-18.63.93-2.54,5.15-13.88,13.57-18.26.83-.44,2.47-1.2,4.08-2.7"/>
    <path class="cls-1" d="M55.73,236.56c-.54,2.2-1.93,5.35-2.69,7.53-.82,2.33-1.32,4.96-2.35,7.43-1.06-1.97-1.25-4.17-.97-6.33.19-2.14,1.58-4.16,2.81-5.81.82-1.19,1.91-2.17,3.2-2.83h0Z"/>
  </g>
  <g id="_Украшение_левая_рука" data-name="Украшение левая рука">
    <path class="cls-2" d="M52.36,208.48c-.42-.93-.68-1.89-.81-2.87-.83.72-1.8.1-2.73-.43-1.5-.87-3.28-.73-4.78.09-.76.31-1.6,1.2-2.16.58-.07-.1-.04-.05-.31-.65-.6-1.46-2.44-2.65-4.1-2.42-.77.04-1.79.43-2.5.29-.5-.15-.64-.8-.82-1.29-.31-1.12-1.1-2.07-2.26-2.34-.5-.16-1.97-.36-2.35-.72-.72-.54-.5-1.9-.58-2.76-.04-.89-.32-1.8-.89-2.46-.15.62-.27,1.23-.36,1.81-.13.84-.5,3.66-2.48,6.39-.53.73-1.09,1.35-1.66,1.87.77.97,1.32,2.16,2.3,3.27.74.72,1.65,1.25,2.63,1.45,1.46.26,3.14-.11,4.26.95,1.02.93,2.05,1.85,3.35,2.38,1.7.9,3.76.69,5.62.56.11.01.24.02.37.04.05.01.02-.02.14.02.1.03.26.08.33.1,1.02.36,1.99,1.56,3.14,1.81,1.33.24,3.2.08,4.44-.86.64-.48,1.11-1.29,1.92-1.48.66-.12,1.42.18,2.1.31.45.12.9.15,1.35.09-1.37-1.18-2.34-1.89-3.16-3.73ZM31.23,204.67c-1.14,0-2.06-.84-2.06-1.88s.92-1.89,2.06-1.89,2.05.85,2.05,1.89-.92,1.88-2.05,1.88ZM39.3,208.09c-.95,0-1.71-.76-1.71-1.71s.76-1.71,1.71-1.71,1.71.76,1.71,1.71-.77,1.71-1.71,1.71ZM47.86,209.93c-1.14,0-2.06-.82-2.06-1.84s.92-1.83,2.06-1.83,2.05.82,2.05,1.83-.92,1.84-2.05,1.84Z"/>
    <path class="cls-2" d="M26.68,192.6c-3.08-.77-7.32,1.18-7.62,4.27-.27,1.72.6,4.17,2.27,5.03l.14.08c.94.36,1.58.92,2.1,1.59.57-.52,1.13-1.14,1.66-1.87,1.98-2.73,2.35-5.55,2.48-6.39.09-.58.21-1.19.36-1.81-.36-.41-.81-.73-1.39-.9ZM26.12,196.26c-.75,0-1.35-.61-1.35-1.35s.6-1.35,1.35-1.35,1.34.61,1.34,1.35-.6,1.35-1.34,1.35Z"/>
    <path class="cls-2" d="M55.38,202.12c-1.7.26-2.57,1.55-3.37,2.91-.15.25-.3.44-.46.58.13.98.39,1.94.81,2.87.82,1.84,1.79,2.55,3.16,3.73h.01c1.41-.11,2.76-.9,3.85-1.82,3.74-3.09.74-9.49-4-8.27ZM56.93,207.75c-1.12,0-2.03-.81-2.03-1.81s.91-1.81,2.03-1.81,2.03.81,2.03,1.81-.91,1.81-2.03,1.81Z"/>
    <path class="cls-6" d="M27.46,194.91c0,.74-.6,1.35-1.34,1.35s-1.35-.61-1.35-1.35.6-1.35,1.35-1.35,1.34.61,1.34,1.35Z"/>
    <path class="cls-8" d="M33.28,202.79c0,1.04-.92,1.88-2.05,1.88s-2.06-.84-2.06-1.88.92-1.89,2.06-1.89,2.05.85,2.05,1.89Z"/>
    <path class="cls-8" d="M41.01,206.38c0,.95-.77,1.71-1.71,1.71s-1.71-.76-1.71-1.71.76-1.71,1.71-1.71,1.71.76,1.71,1.71Z"/>
    <path class="cls-8" d="M49.91,208.09c0,1.02-.92,1.84-2.05,1.84s-2.06-.82-2.06-1.84.92-1.83,2.06-1.83,2.05.82,2.05,1.83Z"/>
    <path class="cls-8" d="M58.96,205.94c0,1-.91,1.81-2.03,1.81s-2.03-.81-2.03-1.81.91-1.81,2.03-1.81,2.03.81,2.03,1.81Z"/>
  </g>
  <g id="_Правая_рука" data-name="Правая рука">
    <path class="cls-9" d="M294.18,132.96c10.96-.04,18.59-6.82,20.55-8.61,3.31-3.03,5.6-6.4,7.18-9.59,1.2-2.41,2.24-6.49,2.93-9.55.29-1.31.51-2.44.65-3.16"/>
    <path class="cls-9" d="M297.9,158.72c2.33-.02,4.84-.22,7.44-.71,9.07-1.7,15.22-5.78,18.83-8.22,6.24-4.23,10.22-8.75,12.47-11.35.21-.25,2.69-3.56,7.63-10.17,1.31-1.76,2.41-3.23,3.39-4.61,1.43-2.03,2.61-3.86,3.85-6.15.58-1.06,1.07-2.05,1.49-2.93.1-.21.97-2.12,1.06-2.32"/>
  </g>
  <g id="_Украшение_правая_рука" data-name="Украшение правая рука">
    <path class="cls-10" d="M352.41,119.27c-.93,0-1.68.64-1.68,1.43s.75,1.44,1.68,1.44,1.68-.65,1.68-1.44-.76-1.43-1.68-1.43Z"/>
    <path class="cls-2" d="M356.43,118.13c-.3-2.49-1.76-3.72-3.43-3.55-.9.09-1.87.59-2.75,1.52-1.2,1.26-1.58,2.2-2.75,1.14-.96-.79-2.04-1.54-3.4-1.72-.89-.17-1.77-.02-2.38.27-.81.31-1.86,1.14-2.26-.09-.35-.86-.83-1.83-1.78-2.43-.84-.53-1.65-.73-2.55-.59-.72.05-2.53.86-3.2.52-.64-.75-.24-1.68-1.04-2.76-.82-1.42-2.33-2.19-3.94-2.19-.41-.01-1.04.05-1.36-.12l-.09-.06c-.45-.58-.24-1.66-.52-2.43,0-.03-.02-.06-.03-.09-.04-.12-.07-.23-.11-.34-1.04-2.66-4.03-3.54-6.25-1.86-2.11,1.66-2.59,6.22.24,7.36,1.8.38,1.48.71,1.72,2.29.15.89.72,1.36,1.36,1.76.7.43,1.49.78,1.98,1.47,1.31,1.64,3.44.86,5.2,1.2.66.34.65,1.4,1.08,1.99,1.76,2.73,5.01,2.02,7.66,1.9.39.09.46.56.56.92.16.68.54,1.34,1.21,1.67,2.47,1.22,4.83.57,7.15-.65.38-.04.66.15.91.4.31.29.59.67.99.84,1.8.91,4.07.41,5.62-.77,1.27-1.36,2.33-3.69,2.16-5.6ZM320.96,104.6c0-.81.66-1.48,1.47-1.48s1.48.67,1.48,1.48-.66,1.48-1.48,1.48-1.47-.66-1.47-1.48ZM328.57,114.37c-1.04,0-1.87-.89-1.87-1.98s.83-1.99,1.87-1.99,1.88.89,1.88,1.99-.84,1.98-1.88,1.98ZM336.49,118.65c-1.1,0-2-.96-2-2.14s.9-2.14,2-2.14,2.01.96,2.01,2.14-.9,2.14-2.01,2.14ZM344.7,121.47c-1.06,0-1.93-.87-1.93-1.93s.87-1.94,1.93-1.94,1.94.87,1.94,1.94-.87,1.93-1.94,1.93ZM352.41,122.14c-.93,0-1.68-.65-1.68-1.44s.75-1.43,1.68-1.43,1.68.64,1.68,1.43-.76,1.44-1.68,1.44Z"/>
    <path class="cls-6" d="M323.91,104.6c0,.82-.66,1.48-1.48,1.48s-1.47-.66-1.47-1.48.66-1.48,1.47-1.48,1.48.67,1.48,1.48Z"/>
    <path class="cls-6" d="M330.45,112.39c0,1.09-.84,1.98-1.88,1.98s-1.87-.89-1.87-1.98.83-1.99,1.87-1.99,1.88.89,1.88,1.99Z"/>
    <path class="cls-4" d="M338.5,116.51c0,1.18-.9,2.14-2.01,2.14s-2-.96-2-2.14.9-2.14,2-2.14,2.01.96,2.01,2.14Z"/>
    <path class="cls-4" d="M346.64,119.54c0,1.06-.87,1.93-1.94,1.93s-1.93-.87-1.93-1.93.87-1.94,1.93-1.94,1.94.87,1.94,1.94Z"/>
    <path class="cls-4" d="M354.09,120.7c0,.79-.76,1.44-1.68,1.44s-1.68-.65-1.68-1.44.75-1.43,1.68-1.43,1.68.64,1.68,1.43Z"/>
  </g>
  <g id="_Глаза" data-name="Глаза">
    <path class="cls-9" d="M148.97,115.82c-8.17-5.42-13.85-17.48-13.85-31.48,0-19.07,10.53-34.53,23.53-34.53s23.52,15.46,23.52,34.53c0,16.37-7.76,30.07-18.17,33.64h-.01"/>
    <path class="cls-1" d="M138.05,122.06c4.29-6.45,12.1-9.19,19.48-6.92,2.11.51,4.21,1.69,6.31,1.85,0,0,.32,1.97.32,1.97-2.62.24-4.83-1.02-7.25-1.57-4.2-1.17-8.96-.96-12.76,1.23-2.07,1.13-3.88,2.49-6.09,3.44h0Z"/>
    <path class="cls-9" d="M194.19,95.82c-1.49-4.49-2.33-9.55-2.33-14.9,0-18.59,10.12-33.65,22.6-33.65s22.59,15.06,22.59,33.65-10.11,33.65-22.59,33.65c-4.21,0-8.16-1.71-11.53-4.7"/>
    <path class="cls-3" d="M171.77,89.71c-1,12.28-7.38,21.53-14.84,21.53-8.21,0-14.97-11.21-14.97-24.84s6.76-24.85,14.97-24.85c5.71,0,10.94,5.42,13.45,13.93l-12.27,9.96,13.66,4.27Z"/>
    <path class="cls-3" d="M227.73,85.67c-1,12.27-7.38,21.53-14.84,21.53-2.96,0-5.74-1.46-8.06-3.96.22-2.8-.36-5.33-2.02-6.77-.79-.69-1.78-1.08-2.72-1.29-1.37-3.76-2.17-8.16-2.17-12.83,0-13.63,6.76-24.85,14.97-24.85,5.71,0,10.94,5.42,13.45,13.93l-12.27,9.96,13.66,4.28Z"/>
  </g>
  <g id="_Нос_улыбка" data-name="Нос+улыбка">
    <path class="cls-7" d="M169.36,127.68c-1.14,13.89-2.28,27.78-3.43,41.67-6.58-2.82-19.71-8.45-23.08-20.54-.55-1.97-2-7.48.68-13.21,3.28-7,10.31-9.14,11.15-9.39,5-1.43,9.3-.14,14.68,1.47Z"/>
    <path class="cls-7" d="M196.26,173.56c-15.77,1.8-27.68-3.07-30.33-4.21,1.15-13.89,2.29-27.78,3.43-41.67,4.5,1.35,7.63,3.09,14.18,5.09,1.08.32,3.51,1.04,6.75,1.27,1.85.13,3.31.05,4.01,0,.13-.01.4-.03.8-.07.39,13.19.77,26.39,1.16,39.59Z"/>
    <path class="cls-7" d="M222.78,163.98c-.2.12-.4.25-.6.38-11.22,7.15-22.03,8.76-25.92,9.2-.39-13.2-.77-26.4-1.16-39.59,1.3-.14,3.86-.52,6.64-1.5,6.47-2.28,7.01-5.35,13.3-8.12.23-.1.46-.2.69-.3,2.35,13.31,4.7,26.62,7.05,39.93Z"/>
    <path class="cls-7" d="M236.56,150.18c-3.16,6.86-8.41,10.38-13.78,13.8-2.35-13.31-4.7-26.62-7.05-39.93,2.74-1.19,5.89-2.41,9.68-1.85,7.89,1.17,11.57,8.27,12.13,9.39,3.94,7.93.19,16.07-.98,18.59Z"/>
    <path class="cls-1" d="M181.98,183.34c5.59.45,10.83,1.81,16.36,1.04,5.58-.45,10.28-2.81,15.53-4.86-6.31,8.64-23.51,9.8-31.89,3.82h0Z"/>
    <path class="cls-1" d="M237.05,117.9c4.5.64,9.36,8.22,8.8,12.62-1.52-3.63-3.03-7.17-5.99-9.86-.89-.96-2.05-1.48-2.82-2.76h0Z"/>
    <path class="cls-1" d="M140.01,125.14c-.54,1.46-1.78,2.01-2.61,3.19-2.72,3.12-3.98,7.1-4.33,11.19-.82-4.9,1.27-10.18,4.97-13.46.52-.49,1.13-.91,1.98-.92h0Z"/>
    <path class="cls-1" d="M188.43,102.34c.23-5.64,6.79-10.15,12.11-8.05,0,0-.89,1.79-.89,1.79h-.07s.24.07.24.07c-1.08-.08-2.27-.08-3.26.14-3.43.77-5.87,3.43-8.12,6.05h0Z"/>
    <path class="cls-1" d="M205.83,103.24c-.23,8.49-7.53,16.18-16.22,15.63,1.91-.58,3.72-1.32,5.38-2.24,5.03-2.52,8.19-8.23,8.84-13.34,0,0,0-.05,0-.05h2Z"/>
  </g>
  <g id="_Тени" data-name="Тени">
    <path class="cls-9" d="M72.76,213.31v-.02"/>
    <line class="cls-9" x1="297.9" y1="158.73" x2="297.9" y2="158.72"/>
    <path class="cls-3" d="M310.04,357.08c-24.06,4.31-47.96,4.77-72.19,1.87-15.12-1.52-28.95-7.82-43.25-11.2-9.82-2.32-19.93-2.8-30.01-2.61-14.32.11-28.88,1-42.74,1.51-10.04.3-19.98-.16-30.1-.75-9.28-.61-18.51-.76-27.23-3.17-16.05-4.63-7.91-12.45,3.97-14.51,6.47-1.1,13-1.61,19.56-1.84,1.12,2.86,2.6,5.33,4.68,7.37.03.04.06.07.09.08.03.03.05.05.08.08.65.63,1.34,1.21,2.11,1.75,1.14.8,2.3,1.4,3.61,1.88.02.01.03.01.05.02.01.01.03.02.05.03,3.17,1.17,7.16,1.64,13.31,2.37,2.24.26,4.35.41,6.32.45h.07c3.1.09,5.9-.06,8.43-.35.38-.03.76-.08,1.13-.12,2.89-.37,5.43-.88,7.73-1.35.13-.03.26-.06.38-.07.06-.02.11-.03.17-.04.07-.02.13-.03.2-.05.27-.06.54-.11.8-.18.29-.06.57-.12.84-.19,4.34-1.04,6.23-2.04,7.22-2.84t.02-.01s.03-.03.04-.04c.31-.25.52-.48.7-.69.81-.94,1.41-2,1.81-3.1.08-.19.14-.37.2-.56.42-1.3.61-2.66.66-3.98,15.87,1.28,30.38,8.17,46.38,9.59,11.89,1,24.4.7,36.86.32.15.77.27,1.51.37,2.23.03.21.08.57.19,1.08.04.15.07.31.12.46.05.22.12.43.2.64.08.3.19.59.32.88.05.16.12.32.2.48.07.18.15.35.24.52.08.18.18.36.28.53.18.36.39.7.62,1.04.04.08.09.15.15.23.24.36.49.7.77,1.04.15.2.32.4.49.59.18.21.37.41.56.61.14.15.29.3.44.44.12.12.25.24.38.35.45.41.91.79,1.39,1.14.14.1.28.2.42.3.36.25.73.48,1.1.7.22.13.45.25.67.37.22.12.44.22.66.33.22.1.45.2.67.29.23.1.45.18.68.26.07.03.13.05.2.07.15.05.31.1.47.15h.02c.12.04.25.08.38.11.56.15,1.12.26,1.68.33.23.03.46.06.69.07.14.01.28.02.42.01,1.62.05,3.09-.34,6.09-1.76.05-.02.1-.05.16-.08.91-.43,1.97-.96,3.21-1.59.06-.03.12-.06.19-.09.06-.04.12-.06.18-.09.14-.08.27-.15.4-.21.11-.06.22-.11.32-.17.29-.15.58-.29.86-.44.22-.11.44-.22.65-.33.26-.13.52-.27.77-.39,4.39-2.26,7.48-3.89,10.23-5.56.18-.12.37-.24.55-.35.82-.51,1.61-1.03,2.41-1.59.09-.05.17-.11.26-.17.25-.17.5-.35.78-.54.68-.48,1.45-1.02,2.29-1.63.17-.12.34-.24.51-.37h.01c11.87.53,23.52,1.72,35.52,4.02,19.94,4.53,16.75,12.95-2.12,16.42Z"/>
    <path class="cls-3" d="M213.67,235.95c-.95,1.77-2.32,4.26-4.05,7.21-1.71-1.63-3.54-3.31-5.51-5.01.48-.1.96-.21,1.44-.32,2.82-.64,5.52-1.26,8.12-1.88Z"/>
    <path class="cls-3" d="M193.91,266.67c-.17.2-.38.44-.62.72-.08.09-.16.18-.24.28-.17.2-.36.41-.56.63-.1.11-.21.23-.32.35-.19.21-.4.44-.63.68-.1.11-.19.21-.3.32-.2.22-.42.45-.65.68-.11.12-.23.24-.35.36-.01.02-.03.04-.05.06-.62.64-1.31,1.32-2.07,2.03-.24.23-.48.45-.72.67-.11.11-.22.21-.34.31-.28.26-.56.52-.86.78-.91.82-1.91,1.66-2.97,2.52-1.2-3.48-2.6-6.31-3.83-8.45-2.35-4.11-4.7-6.83-5.28-7.5-1.73-1.97-3.37-3.49-4.65-4.57.13-.16.27-.32.39-.48.14-.17.27-.33.4-.5.29-.36.56-.72.81-1.07.3-.4.57-.8.84-1.18.13-.2.26-.39.38-.58.94-1.44,1.71-2.8,2.33-4.02.1-.19.19-.37.28-.56.27-.54.51-1.05.72-1.52.11.1.22.19.32.28.23.21.46.41.68.62.19.16.37.33.55.49.14.13.28.26.41.38.15.15.31.28.46.43.04.03.07.07.11.1.2.19.4.37.59.56.33.31.64.62.94.91.15.14.3.28.44.43.14.13.28.27.41.4.14.14.27.27.39.39.34.33.68.67,1.01,1.01.1.1.19.2.28.29.28.28.55.57.82.85.52.55,1.03,1.1,1.55,1.66.44.48.88.96,1.32,1.46.51.58,1.02,1.16,1.54,1.76.46.54.92,1.09,1.39,1.65.33.4.66.8,1,1.21.04.05.08.1.13.15.25.31.51.63.77.96.3.37.61.74.91,1.13.74.94,1.5,1.92,2.27,2.92Z"/>
    <path class="cls-3" d="M297.9,158.72c-3.67.06-6.9-.34-9.31-.78.55-6.09.32-11.25.12-15.2-.19-3.72-.56-7.12-1.11-10.57,1.6.39,3.86.8,6.58.79.12,1.1.31,2.76.59,4.76.41,2.94.82,5.26,1.57,9.46.7,3.97.96,5.24,1.24,7.69.17,1.61.27,2.95.32,3.85Z"/>
  </g>
  <g id="_Трещенки" data-name="Трещенки">
    <path class="cls-1" d="M85.97,169.35c1.95,7.05,4.77,15.41,7.44,22.73,2.67,5.48,6.84,10.42,12.31,13.22,1.57.91,3.39.77,5.08,1.58,1.79.85,3.06,2.38,4.01,3.93,1.4,2.34,2.68,4.7,3.8,7.17.68,1.64,1.44,3.06,2.96,4,2.25,1.37,5.03,1.52,7.47,2.62,3.37,1.34,6.57,3.23,9,5.93-3.11-1.82-6.05-3.76-9.35-5.03-3.29-1.39-7.52-1.34-9.77-4.61-1.77-3.15-3.09-6.46-5.07-9.47-.91-1.47-2.06-2.79-3.55-3.47-1.57-.71-3.58-.64-5.13-1.58-5.74-2.94-10.06-8.05-12.85-13.78-2.76-7.63-5.29-15.29-7.36-23.16,0,0,0-.06,0-.06h0s1,0,1,0h0Z"/>
    <path class="cls-12" d="M78.25,139.38c.01-.83.05-2.93.06-6.42.02-3.09-.04-4.46,0-5.28.26-4.89,1.1-7.57,2.09-12.16,2.59-12.02,1.03-13.24,3.65-16.88,2.58-3.57,4.53-2.99,5.9-6.37,1.29-3.16-.08-4.47.1-11.35.11-4.09.18-6.74,1.57-9.78,1.25-2.74,2.93-4.4,5.61-7.05,4.54-4.48,5.54-3.73,7.76-6.59,2.8-3.61,3.44-7.7,4.11-11.93.84-5.35-.04-6.88,1.56-10.7,1.01-2.38,2.26-3.93,3.92-6,2.23-2.77,4.22-4.5,8.08-7.82,4.07-3.5,5.65-4.45,7.83-7.31,1.21-1.58,2.04-3.01,2.56-3.98"/>
  </g>
</svg>